<?xml version="1.0" encoding="UTF-8" standalone="no"?><!DOCTYPE svg PUBLIC "-//W3C//DTD SVG 1.1//EN" "http://www.w3.org/Graphics/SVG/1.1/DTD/svg11.dtd"><svg width="100%" height="100%" viewBox="0 0 1440 788" version="1.1" xmlns="http://www.w3.org/2000/svg" xmlns:xlink="http://www.w3.org/1999/xlink" xml:space="preserve" xmlns:serif="http://www.serif.com/" style="fill-rule:evenodd;clip-rule:evenodd;stroke-linecap:round;stroke-linejoin:round;stroke-miterlimit:1.5;"><path d="M69.454,719.22l98.989,-0c75.696,-0 125.918,-50.586 125.918,-126.283c0,-78.244 -50.222,-128.466 -125.918,-128.466l-98.989,-0l0,254.749Zm94.258,-217.265c53.133,0 88.798,35.665 88.798,88.799c-0,55.316 -35.665,90.981 -88.798,90.981l-51.314,0l-0,-179.78l51.314,0Z" style="fill:#6a6a6a;fill-rule:nonzero;"/><path d="M328.934,464.471l0,254.749l189.242,-0l0,-35.665l-146.298,-0l-0,-72.058l118.276,0l-0,-35.664l-118.276,-0l-0,-75.697l146.298,-0l0,-35.665l-189.242,-0Z" style="fill:#6a6a6a;fill-rule:nonzero;"/><path d="M728.526,521.607l19.652,-33.117c-25.111,-17.468 -58.592,-30.934 -95.713,-31.298c-44.035,-0.363 -90.981,17.833 -93.165,68.055c-1.82,44.763 34.209,65.87 90.618,83.703c33.481,10.554 66.234,24.383 63.323,48.766c-2.184,16.741 -19.652,26.931 -50.586,26.931c-31.298,-0 -62.959,-8.007 -88.434,-26.567l-21.472,33.481c29.478,20.38 65.871,34.573 110.634,34.573c45.491,0 91.71,-16.74 93.529,-68.418c1.456,-46.583 -34.573,-66.235 -86.978,-82.975c-36.029,-11.282 -67.327,-25.111 -65.507,-48.766c1.092,-17.469 19.288,-28.751 48.038,-28.751c3.639,0 7.643,0.364 8.371,0.364c30.933,2.912 53.861,13.466 67.69,24.019Z" style="fill:#6a6a6a;fill-rule:nonzero;"/><rect x="791.121" y="464.471" width="42.943" height="254.749" style="fill:#6a6a6a;fill-rule:nonzero;"/><path d="M868.274,592.937c-0,78.608 54.953,132.469 136.836,132.469c42.58,0 77.881,-14.557 101.172,-40.031l0.364,-0l-0,-92.074l-42.944,0l0,73.149c-15.284,11.646 -35.3,18.197 -58.592,18.197c-57.864,-0 -93.529,-37.485 -93.529,-91.71c0,-54.225 35.665,-90.982 90.618,-90.982c28.75,0 54.225,10.19 70.238,27.659l32.389,-26.931c-23.291,-26.566 -58.592,-42.215 -101.535,-42.215c-80.064,-0 -135.017,53.861 -135.017,132.469Z" style="fill:#6a6a6a;fill-rule:nonzero;"/><path d="M1151.77,719.22l42.943,-0l0,-184.147l132.47,184.147l42.943,-0l-0,-254.749l-42.943,-0l-0,184.147l-132.47,-184.147l-42.943,-0l-0,254.749Z" style="fill:#6a6a6a;fill-rule:nonzero;"/><path d="M300.92,146.196l25.879,-43.61c-33.067,-23.003 -77.156,-40.734 -126.037,-41.213c-57.986,-0.48 -119.806,23.482 -122.681,89.615c-2.397,58.945 45.047,86.74 119.327,110.222c44.088,13.897 87.219,32.108 83.385,64.216c-2.875,22.044 -25.878,35.463 -66.612,35.463c-41.214,-0 -82.906,-10.543 -116.452,-34.984l-28.275,44.089c38.818,26.837 86.74,45.526 145.685,45.526c59.903,0 120.765,-22.044 123.161,-90.094c1.917,-61.341 -45.526,-87.219 -114.535,-109.263c-47.443,-14.856 -88.657,-33.067 -86.26,-64.217c1.437,-23.002 25.398,-37.858 63.257,-37.858c4.793,-0 10.064,0.479 11.022,0.479c40.735,3.834 70.926,17.731 89.136,31.629Z" style="fill-rule:nonzero;"/><path d="M548.68,120.317c71.405,0 119.807,48.402 119.807,119.807c-0,71.404 -48.402,119.806 -119.807,119.806c-71.884,0 -119.806,-48.402 -119.806,-119.806c-0,-71.405 47.922,-119.807 119.806,-119.807Zm0,-54.631c-103.513,-0 -174.438,70.925 -174.438,174.438c-0,103.513 70.925,174.438 174.438,174.438c103.034,-0 173.959,-70.925 173.959,-174.438c0,-103.513 -70.925,-174.438 -173.959,-174.438Z" style="fill-rule:nonzero;"/><path d="M768.645,406.415l56.548,0l0,-242.488l174.438,242.488l56.549,0l0,-335.458l-56.549,0l0,242.488l-174.438,-242.488l-56.548,0l-0,335.458Z" style="fill-rule:nonzero;"/><path d="M1332.69,146.196l25.878,-43.61c-33.066,-23.003 -77.155,-40.734 -126.036,-41.213c-57.986,-0.48 -119.806,23.482 -122.682,89.615c-2.396,58.945 45.048,86.74 119.327,110.222c44.089,13.897 87.22,32.108 83.386,64.216c-2.876,22.044 -25.878,35.463 -66.613,35.463c-41.213,-0 -82.906,-10.543 -116.451,-34.984l-28.275,44.089c38.818,26.837 86.74,45.526 145.685,45.526c59.903,0 120.765,-22.044 123.161,-90.094c1.917,-61.341 -45.527,-87.219 -114.535,-109.263c-47.443,-14.856 -88.657,-33.067 -86.261,-64.217c1.438,-23.002 25.399,-37.858 63.258,-37.858c4.792,-0 10.064,0.479 11.022,0.479c40.734,3.834 70.926,17.731 89.136,31.629Z" style="fill-rule:nonzero;"/><path d="M48.621,767.801c-5.525,0 -10.824,-2.195 -14.731,-6.102c-3.907,-3.907 -6.102,-9.206 -6.102,-14.731c-0,-107.533 -0,-598.903 -0,-706.436c-0,-5.525 2.195,-10.824 6.102,-14.731c3.907,-3.907 9.206,-6.102 14.731,-6.102c159.332,-0 1183.01,-0 1342.34,-0c5.526,-0 10.825,2.195 14.732,6.102c3.907,3.907 6.102,9.206 6.102,14.731c-0,107.533 -0,598.903 -0,706.436c-0,5.525 -2.195,10.824 -6.102,14.731c-3.907,3.907 -9.206,6.102 -14.732,6.102c-159.332,0 -1183.01,0 -1342.34,0Z" style="fill:none;stroke:#000;stroke-width:14.58px;"/></svg>